<svg width="359" height="126" viewBox="0 0 359 126" fill="none" xmlns="http://www.w3.org/2000/svg">
<path d="M356.888 59.7736C351.762 46.794 339.103 39.7252 325.404 42.1987L297.252 47.2687C292.578 48.1097 289.476 52.5828 290.309 57.257C291.149 61.9312 295.615 65.0374 300.282 64.2036L328.434 59.1337C335.133 57.9256 339.268 61.9384 340.905 66.0875C342.55 70.2438 342.262 76.004 336.554 79.708L295.234 106.523C291.393 109.011 286.719 109.184 282.72 107.005C278.713 104.826 276.315 100.792 276.315 96.2255V9.33499C276.315 4.58183 272.474 0.727969 267.728 0.727969C262.982 0.727969 259.141 4.58183 259.141 9.33499V96.2399C259.141 107.214 264.885 116.893 274.513 122.135C278.986 124.566 283.804 125.781 288.6 125.781C294.136 125.781 299.65 124.177 304.576 120.978L345.896 94.1613C357.599 86.5675 362.015 72.7541 356.888 59.7736ZM211.544 42.2059L183.392 47.2759C178.725 48.1169 175.623 52.59 176.456 57.2642C177.296 61.9384 181.762 65.0446 186.429 64.2108L214.581 59.1408C221.288 57.9328 225.416 61.9455 227.06 66.0947C228.697 70.251 228.417 76.0112 222.702 79.7151L181.381 106.531C177.547 109.019 172.873 109.191 168.866 107.013C164.86 104.833 162.469 100.799 162.469 96.2327V30.218C162.469 19.2371 156.725 9.55847 147.097 4.31617C137.468 -0.918949 126.232 -0.487246 117.034 5.47395L13.097 72.9193C1.4009 80.5058 -3.01477 94.3201 2.11172 107.3C7.23104 120.272 19.8821 127.335 33.5958 124.867L124.343 108.529C129.01 107.688 132.119 103.215 131.279 98.5411C130.439 93.8669 125.973 90.7535 121.306 91.5945L30.5588 107.933C23.8527 109.141 19.7242 105.128 18.0871 100.979C16.4429 96.8224 16.7229 91.0622 22.4382 87.352L126.354 19.921C130.181 17.4394 134.862 17.2599 138.868 19.439C142.875 21.6254 145.266 25.6596 145.266 30.2252V96.2399C145.266 107.214 151.01 116.893 160.638 122.135C165.111 124.566 169.936 125.781 174.732 125.781C180.268 125.781 185.775 124.177 190.701 120.978L232.029 94.1613C243.718 86.5747 248.134 72.7613 243.014 59.7808C237.909 46.7939 225.244 39.7396 211.544 42.2059Z" fill="#009C32"/>
</svg>
