<svg width="1000" height="252" viewBox="0 0 1000 252" fill="none" xmlns="http://www.w3.org/2000/svg">
<path d="M585.4 84.4C596.8 79.3 607.1 67.5 607.1 50.9C607.1 22.8 588.7 6 557.9 6H479V171.6H555.2C590.6 171.6 610.7 154.1 610.7 123.5C610.7 101.7 598.3 89.2 585.4 84.4ZM510.5 34.8H554.4C567.5 34.8 574.4 40.9 574.4 53.4C574.4 65.4 567.4 72 554.6 72H510.5V34.8ZM551.7 142.6H510.6V100.4H551.7C569.2 100.4 578.1 107.6 578.1 121.5C578 135.4 569 142.6 551.7 142.6Z" fill="#EF3124"/>
<path d="M821.7 47.7C804.2 47.7 793 57 787.5 65.8V52.7H757.1V171.5H787.5V98.9C787.5 82.4 795.5 74.9 809.4 74.9C822.9 74.9 830.7 82.5 830.7 98.9V171.5H861.1V97.5C861.2 65 847.5 47.7 821.7 47.7Z" fill="#EF3124"/>
<path d="M885.7 0V171.5H916V120.5L960.5 171.5H1000L944.9 108.2L996.2 52.7H957.6L916 98.5V0H885.7Z" fill="#EF3124"/>
<path d="M730.6 135V95.1999C730.6 66.0999 712 47.7 680.8 47.7C648.5 47.7 631.4 67.1 630 87.4H660.8C661.9 83 666.5 75.4 680.8 75.4C692.6 75.4 700.2 80.8999 700.2 95.1999H670C643 95.1999 627 109.3 627 133C627 157.7 644.5 174.6 669.8 174.6C688.3 174.6 698.6 165.8 703.1 159.2C707.1 167.2 716 171.6 727.6 171.6H738.1V144.2C732.7 144.1 730.6 141.6 730.6 135ZM700.2 127.2C700.2 140.9 690.5 148.7 677.8 148.7C666.8 148.7 658.2 144.7 658.2 132.9C658.2 121.3 667.7 119.4 675.9 119.4H700.2V127.2Z" fill="#EF3124"/>
<path d="M275.1 42.8C275.1 31.2 280 25.9 291.1 25.9H325.3V0H282.5C257.8 0 244.7 12.9 244.7 37.1V60.1H217.5V87.5H244.7V171.5H275.1V87.5H304.8V60.1H275.1V42.8Z" fill="#EF3124"/>
<path d="M201.7 0H171.3V171.5H201.7V0Z" fill="#EF3124"/>
<path d="M162.4 217.4H0V251.1H162.4V217.4Z" fill="#EF3124"/>
<path d="M110.7 28.7C106.1 14.9 100.7 4 82.5004 4C64.2004 4 58.5004 14.9 53.7004 28.7L3.40039 171.5H36.7004L48.3004 137.5H112.4L123.2 171.5H158.6L110.7 28.7ZM58.0004 108.9L80.8004 41.2H81.6004L103.1 108.9H58.0004Z" fill="#EF3124"/>
<path d="M415.4 135V95.1999C415.4 66.0999 396.8 47.7 365.6 47.7C333.3 47.7 316.2 67.1 314.8 87.4H345.6C346.7 83 351.3 75.4 365.6 75.4C377.4 75.4 385 80.8999 385 95.1999H354.8C327.8 95.1999 311.8 109.3 311.8 133C311.8 157.7 329.3 174.6 354.6 174.6C373.1 174.6 383.4 165.8 387.9 159.2C391.9 167.2 400.8 171.6 412.4 171.6H423V144.2C417.5 144.1 415.4 141.6 415.4 135ZM385 127.2C385 140.9 375.3 148.7 362.6 148.7C351.6 148.7 343 144.7 343 132.9C343 121.3 352.5 119.4 360.7 119.4H385V127.2Z" fill="#EF3124"/>
</svg>
