<svg width="255" height="237" viewBox="0 0 255 237" fill="none" xmlns="http://www.w3.org/2000/svg">
<path fill-rule="evenodd" clip-rule="evenodd" d="M53.5 94.6816L11.3 52.5816L0.1 63.7816H0C0 56.4816 2.1 31.5816 22.1 12.1816C44.5 -9.61839 66.9 3.08161 74.6 10.7816L115.2 51.3816L105.2 61.3816L127.3 83.4816L149.4 61.3816L139.4 51.3816L180 10.7816C187.7 3.08161 210.1 -9.71839 232.5 12.1816C252.5 31.6816 254.6 56.5816 254.6 63.7816L254.5 63.8816L243.1 52.5816L201 94.6816L189.4 83.0816V55.2816L177.5 67.1816V100.782L161 117.282L246.3 202.582L212.5 236.382L127.2 151.082L41.9 236.382L8.1 202.582L93.4 117.282L77 100.782V67.2816L65.1 55.2816V82.9816L53.5 94.6816Z" fill="#2B2D33"/>
</svg>
