<svg width="44" height="44" viewBox="0 0 44 44" fill="none" xmlns="http://www.w3.org/2000/svg">
<path d="M43.93 27.7704V39.0004C39.1477 37.8165 34.5559 35.965 30.29 33.5004V14.1504C32.0799 14.1491 33.8526 14.5003 35.5067 15.1841C37.1609 15.8679 38.6642 16.8707 39.9308 18.1355C41.1974 19.4002 42.2025 20.902 42.8887 22.5552C43.5748 24.2083 43.9287 25.9805 43.93 27.7704Z" fill="#F39A00"/>
<path d="M30.2899 14.15H10.8399C8.37738 9.8841 6.53868 5.2874 5.37988 0.5H16.6099C20.2329 0.49999 23.7079 1.93715 26.2725 4.49617C28.8372 7.05518 30.282 10.527 30.2899 14.15Z" fill="#00AFAA"/>
<path d="M0.5 14.1504H10.84C15.4805 22.2284 22.182 28.9299 30.26 33.5704V43.9104C23.3541 41.5557 17.0803 37.6485 11.9211 32.4893C6.7619 27.3301 2.8547 21.0563 0.5 14.1504Z" fill="#00AFAA"/>
<path d="M30.1797 0.5C30.9224 3.86425 32.6113 6.94608 35.0475 9.3822C37.4836 11.8184 40.5654 13.5073 43.9297 14.25V0.5H30.1797Z" fill="#00AFAA"/>
<path d="M30.2901 14.1504V33.5704C22.2121 28.9299 15.5106 22.2284 10.8701 14.1504H30.2901Z" fill="#00539B"/>
</svg>
