<svg width="749" height="1312" viewBox="0 0 749 1312" fill="none" xmlns="http://www.w3.org/2000/svg">
<path fill-rule="evenodd" clip-rule="evenodd" d="M485.955 784.944L472.103 476.887C471.442 476.549 471.092 476.549 470.417 476.549C467.382 475.875 464.01 475.201 460.962 474.526L445.087 824.476C453.53 816.694 461.974 808.575 470.417 800.482C475.475 795.398 480.897 790.016 485.955 784.944ZM403.558 943.694C399.498 946.742 395.776 949.44 391.73 952.475L377.554 1268.99H429.562L414.349 935.588C410.639 938.299 407.254 941.01 403.558 943.694ZM497.446 422.504L482.246 92.1515L474.126 90.1153L470.417 171.202L459.263 416.759C462.985 417.796 466.695 418.458 470.417 419.132C479.211 420.805 488.328 421.83 497.446 422.504ZM421.793 845.734L404.232 455.603C403.869 455.603 403.558 455.603 403.558 455.253C400.497 454.254 397.812 452.906 395.115 451.557L375.53 885.253C384.972 877.484 394.44 869.715 403.571 861.946C409.615 856.55 415.698 851.155 421.793 845.734ZM496.434 1268.99L478.873 883.242C476.163 885.616 473.154 888.313 470.43 890.661C467.395 893.372 464.334 895.732 461.299 898.43L444.426 1268.99H496.434ZM563.307 1268.99L543.398 824.788C541.285 826.619 539.247 828.536 537.289 830.533C535.266 832.556 532.905 834.58 530.882 836.616L511.285 1268.99H563.307ZM612.968 636.648L605.523 467.769C605.212 467.769 604.537 467.769 604.174 468.106C601.126 469.131 598.117 469.805 595.057 470.804L585.939 672.12C592.009 664.365 598.117 656.596 604.174 648.464C607.248 644.767 610.27 640.695 612.968 636.648ZM630.192 1268.99L607.235 758.927C606.185 759.939 605.199 760.95 604.174 761.975C603.163 762.974 602.151 764.323 601.126 765.36L578.17 1268.99H630.192ZM549.805 716.023L538.988 480.272H537.289C534.267 480.596 530.882 480.596 527.497 480.946L515.344 754.219C522.915 746.343 530.234 738.228 537.289 729.888C541.362 725.504 545.746 720.757 549.805 716.023ZM434.283 409.651L418.408 63.4364C416.709 62.0876 414.686 60.7387 412.987 59.3899L403.545 267.788L397.799 394.464C399.485 395.475 401.522 396.15 403.545 397.161C413.35 401.895 423.467 406.292 434.283 409.651ZM116.771 1110.23L109.676 1268.99H161.698L153.929 1093.66C147.872 1096.36 141.776 1099.09 135.68 1101.77C129.472 1104.8 123.165 1107.62 116.771 1110.23ZM48.5237 1137.92L42.791 1268.99H94.7998L88.0555 1122.38C81.6355 1125.09 75.2154 1127.77 68.7954 1130.15C62.0511 1132.86 55.3068 1135.22 48.5237 1137.92ZM185.329 1078.48L176.535 1268.99H228.557L219.089 1060.9C213.694 1063.6 208.298 1066.63 202.553 1069.7C196.82 1072.42 191.074 1075.42 185.329 1078.48ZM697.401 1268.99L671.397 693.741L645.055 1268.99H697.401ZM336.66 990.995C331.926 994.017 327.205 997.065 322.821 1000.11L310.656 1268.99H362.677L349.513 982.202C345.103 985.262 341.057 987.947 336.66 990.995ZM352.872 0.273682L336.997 351.56C347.247 361.28 358.317 370.097 370.083 377.914L352.872 0.273682ZM336.66 915.991C343.404 910.583 350.486 905.511 357.256 900.116L336.66 442.763L334.961 411C333.275 409.327 331.926 407.978 330.227 406.629L306.596 929.843H318.074C324.183 925.109 330.24 920.738 336.66 915.991Z" fill="#537B9B"/>
<path fill-rule="evenodd" clip-rule="evenodd" d="M671.397 563.693H630.529V586.65H725.442V1288.9H23.5442V586.65H303.561V563.693H0.224609V1311.88H748.424V563.693H671.397Z" fill="#537B9B"/>
<path fill-rule="evenodd" clip-rule="evenodd" d="M253.913 1041.64L243.446 1268.99H295.779L284.638 1023.76C279.567 1026.79 274.509 1029.83 269.464 1032.55C264.379 1035.91 258.984 1038.93 253.913 1041.64Z" fill="#537B9B"/>
</svg>
